<svg id="Layer_1" viewBox="0 0 24 24" xmlns="http://www.w3.org/2000/svg" data-name="Layer 1"><path d="m7 13c.524 0 .96.405.998.929.059.822.157 1.368.235 1.697.628.147 1.9.375 3.767.375s3.138-.227 3.768-.375c.076-.325.175-.872.234-1.696.038-.523.473-.929.998-.929h5.983c.01-.332.017-.666.017-1 0-4.501-.981-9.024-1.023-9.215-.075-.344-.326-.622-.66-.733-.129-.043-3.224-1.052-9.316-1.052s-9.189 1.008-9.317 1.051c-.334.111-.585.39-.66.733-.042.19-1.023 4.714-1.023 9.215 0 .334.007.668.017 1zm-1.123-8.647c1.896-.234 3.957-.353 6.123-.353s4.226.119 6.123.353c.548.068.938.567.87 1.115-.066.551-.577.939-1.115.87-1.815-.225-3.793-.338-5.877-.338s-4.062.114-5.877.338c-.545.069-1.047-.321-1.115-.87-.067-.548.322-1.047.87-1.115zm-1.032 4.158c2.165-.339 4.572-.511 7.155-.511s4.99.172 7.155.511c.545.085.918.597.833 1.143-.083.548-.609.921-1.143.833-2.062-.323-4.366-.487-6.845-.487s-4.783.164-6.845.487c-.54.088-1.057-.287-1.143-.833-.085-.545.288-1.057.833-1.143zm18.025 6.489c-.267 3.32-.861 6.067-.894 6.215-.075.344-.326.622-.66.733-.129.043-3.224 1.052-9.316 1.052s-9.188-1.009-9.316-1.052c-.334-.111-.585-.39-.66-.733-.033-.147-.627-2.894-.894-6.215h4.964c.159 1.235.396 1.774.451 1.885.115.234.316.414.562.501.07.025 1.756.614 4.893.614s4.823-.589 4.893-.614c.246-.087.447-.268.562-.501.055-.111.292-.649.451-1.885h4.965z"/></svg>